<svg version="1.1" id="Слой_1" xmlns="http://www.w3.org/2000/svg" xmlns:xlink="http://www.w3.org/1999/xlink" x="0px" y="0px"
	 viewBox="0 0 27 27" style="enable-background:new 0 0 27 27;" xml:space="preserve">

<path class="st0" d="M21,5.7c-1-1-2.4-1.6-3.8-1.6c-1.4,0-2.8,0.6-3.8,1.6l-0.5,0.5c-0.1,0.1-0.1,0.1-0.2,0.2c0,0.1-0.1,0.2-0.1,0.3
	c0,0.1,0,0.2,0.1,0.3c0,0.1,0.1,0.2,0.2,0.2l1,1c0.1,0.1,0.3,0.2,0.5,0.2c0.2,0,0.4-0.1,0.5-0.2l0.5-0.5C15.9,7.3,16.5,7,17.2,7
	c0.7,0,1.3,0.3,1.8,0.7s0.7,1.1,0.7,1.8c0,0.7-0.3,1.3-0.7,1.8l-2.6,2.6c-0.4,0.4-1,0.7-1.7,0.7c-0.6,0-1.2-0.2-1.7-0.6l-0.6-0.5
	c-0.1-0.1-0.2-0.1-0.2-0.1c-0.1,0-0.2,0-0.3,0c-0.1,0-0.2,0-0.3,0.1c-0.1,0-0.2,0.1-0.2,0.2l-0.9,1.1c-0.1,0.1-0.2,0.3-0.2,0.5
	c0,0.2,0.1,0.4,0.3,0.5l0.6,0.5c1,0.9,2.4,1.3,3.7,1.3c1.4-0.1,2.6-0.6,3.6-1.6l2.6-2.6c1-1,1.6-2.4,1.6-3.8
	C22.6,8.1,22.1,6.7,21,5.7z" fill="white"/>
<path class="st0" d="M12.9,18.5c-0.1-0.1-0.3-0.2-0.5-0.2c-0.2,0-0.4,0.1-0.5,0.2L11.3,19c-0.5,0.5-1.1,0.7-1.8,0.7
	c-0.7,0-1.3-0.3-1.8-0.7C7.3,18.5,7,17.9,7,17.2c0-0.7,0.3-1.3,0.7-1.8l2.6-2.6c0.4-0.4,1-0.7,1.7-0.7c0.6,0,1.2,0.2,1.7,0.6
	l0.6,0.5c0.1,0.1,0.2,0.1,0.2,0.1c0.1,0,0.2,0,0.3,0c0.1,0,0.2,0,0.3-0.1c0.1,0,0.2-0.1,0.2-0.2l0.9-1.1c0.1-0.1,0.2-0.3,0.2-0.5
	c0-0.2-0.1-0.4-0.3-0.5l-0.6-0.5c-1-0.9-2.4-1.3-3.7-1.3c-1.4,0.1-2.6,0.6-3.6,1.6l-2.6,2.6c-1,1-1.6,2.4-1.6,3.8
	c0,1.4,0.6,2.8,1.6,3.8c1,1,2.4,1.6,3.8,1.6c1.4,0,2.8-0.6,3.8-1.6l0.5-0.5c0.1-0.1,0.1-0.1,0.2-0.2c0-0.1,0.1-0.2,0.1-0.3
	c0-0.1,0-0.2-0.1-0.3c0-0.1-0.1-0.2-0.2-0.2L12.9,18.5z" fill="white"/>
</svg>
