<svg xmlns="http://www.w3.org/2000/svg" width="32.969" height="38.5" viewBox="0 0 32.969 38.5">
  <g id="surface1" transform="translate(-77.77 -30.892)">
    <path id="Path_747" data-name="Path 747" d="M30.344,24.709a18.667,18.667,0,0,1-4.471,6.965,23.4,23.4,0,0,1-8.738,5.177,2.673,2.673,0,0,1-.849.15h-.032a2.711,2.711,0,0,1-.521-.051,2.822,2.822,0,0,1-.358-.1,23.4,23.4,0,0,1-8.748-5.174,18.632,18.632,0,0,1-4.47-6.964c-1.806-4.9-1.7-10.3-1.62-14.637V10.01c.017-.358.027-.735.033-1.15A3.921,3.921,0,0,1,4.264,5.018,15.217,15.217,0,0,0,14.621.653L14.646.63a2.37,2.37,0,0,1,3.218,0l.024.023A15.22,15.22,0,0,0,28.245,5.018,3.921,3.921,0,0,1,31.938,8.86c.006.418.017.794.033,1.15v.028C32.054,14.385,32.156,19.794,30.344,24.709Zm0,0" transform="translate(78 31.641)" fill="none" stroke="#2c596d" stroke-width="1.5"/>
  </g>
</svg>
